<svg width="167" height="96" viewBox="0 0 167 96" fill="none" xmlns="http://www.w3.org/2000/svg">
<path d="M23.6958 3.848V15H22.2398V3.848H23.6958ZM34.7949 6.072C35.4563 6.072 36.0536 6.216 36.5869 6.504C37.1203 6.78133 37.5363 7.20267 37.8349 7.768C38.1443 8.33333 38.2989 9.02133 38.2989 9.832V15H36.8589V10.04C36.8589 9.16533 36.6403 8.49867 36.2029 8.04C35.7656 7.57067 35.1683 7.336 34.4109 7.336C33.6429 7.336 33.0296 7.576 32.5709 8.056C32.1229 8.536 31.8989 9.23467 31.8989 10.152V15H30.4429V3.16H31.8989V7.48C32.1869 7.032 32.5816 6.68533 33.0829 6.44C33.5949 6.19467 34.1656 6.072 34.7949 6.072ZM40.1333 10.584C40.1333 9.688 40.3146 8.904 40.6773 8.232C41.04 7.54933 41.536 7.02133 42.1653 6.648C42.8053 6.27467 43.5146 6.088 44.2933 6.088C45.0613 6.088 45.728 6.25333 46.2933 6.584C46.8586 6.91467 47.28 7.33067 47.5573 7.832V6.232H49.0293V15H47.5573V13.368C47.2693 13.88 46.8373 14.3067 46.2613 14.648C45.696 14.9787 45.0346 15.144 44.2773 15.144C43.4986 15.144 42.7946 14.952 42.1653 14.568C41.536 14.184 41.04 13.6453 40.6773 12.952C40.3146 12.2587 40.1333 11.4693 40.1333 10.584ZM47.5573 10.6C47.5573 9.93867 47.424 9.36267 47.1573 8.872C46.8906 8.38133 46.528 8.008 46.0693 7.752C45.6213 7.48533 45.1253 7.352 44.5813 7.352C44.0373 7.352 43.5413 7.48 43.0933 7.736C42.6453 7.992 42.288 8.36533 42.0213 8.856C41.7546 9.34667 41.6213 9.92267 41.6213 10.584C41.6213 11.256 41.7546 11.8427 42.0213 12.344C42.288 12.8347 42.6453 13.2133 43.0933 13.48C43.5413 13.736 44.0373 13.864 44.5813 13.864C45.1253 13.864 45.6213 13.736 46.0693 13.48C46.528 13.2133 46.8906 12.8347 47.1573 12.344C47.424 11.8427 47.5573 11.2613 47.5573 10.6ZM54.7538 13.656L57.4738 6.232H59.0258L55.5858 15H53.8898L50.4498 6.232H52.0178L54.7538 13.656ZM68.4586 10.28C68.4586 10.5573 68.4426 10.8507 68.4106 11.16H61.4026C61.4559 12.024 61.7492 12.7013 62.2826 13.192C62.8266 13.672 63.4826 13.912 64.2506 13.912C64.8799 13.912 65.4026 13.768 65.8186 13.48C66.2452 13.1813 66.5439 12.7867 66.7146 12.296H68.2826C68.0479 13.1387 67.5786 13.8267 66.8746 14.36C66.1706 14.8827 65.2959 15.144 64.2506 15.144C63.4186 15.144 62.6719 14.9573 62.0106 14.584C61.3599 14.2107 60.8479 13.6827 60.4746 13C60.1012 12.3067 59.9146 11.5067 59.9146 10.6C59.9146 9.69333 60.0959 8.89867 60.4586 8.216C60.8212 7.53333 61.3279 7.01067 61.9786 6.648C62.6399 6.27467 63.3972 6.088 64.2506 6.088C65.0826 6.088 65.8186 6.26933 66.4586 6.632C67.0986 6.99467 67.5892 7.496 67.9306 8.136C68.2826 8.76533 68.4586 9.48 68.4586 10.28ZM66.9546 9.976C66.9546 9.42133 66.8319 8.94667 66.5866 8.552C66.3412 8.14667 66.0052 7.84267 65.5786 7.64C65.1626 7.42667 64.6986 7.32 64.1866 7.32C63.4506 7.32 62.8212 7.55467 62.2986 8.024C61.7866 8.49333 61.4932 9.144 61.4186 9.976H66.9546ZM74.1021 10.584C74.1021 9.688 74.2834 8.904 74.6461 8.232C75.0087 7.54933 75.5047 7.02133 76.1341 6.648C76.7741 6.27467 77.4834 6.088 78.2621 6.088C79.0301 6.088 79.6967 6.25333 80.2621 6.584C80.8274 6.91467 81.2487 7.33067 81.5261 7.832V6.232H82.9981V15H81.5261V13.368C81.2381 13.88 80.8061 14.3067 80.2301 14.648C79.6647 14.9787 79.0034 15.144 78.2461 15.144C77.4674 15.144 76.7634 14.952 76.1341 14.568C75.5047 14.184 75.0087 13.6453 74.6461 12.952C74.2834 12.2587 74.1021 11.4693 74.1021 10.584ZM81.5261 10.6C81.5261 9.93867 81.3927 9.36267 81.1261 8.872C80.8594 8.38133 80.4967 8.008 80.0381 7.752C79.5901 7.48533 79.0941 7.352 78.5501 7.352C78.0061 7.352 77.5101 7.48 77.0621 7.736C76.6141 7.992 76.2567 8.36533 75.9901 8.856C75.7234 9.34667 75.5901 9.92267 75.5901 10.584C75.5901 11.256 75.7234 11.8427 75.9901 12.344C76.2567 12.8347 76.6141 13.2133 77.0621 13.48C77.5101 13.736 78.0061 13.864 78.5501 13.864C79.0941 13.864 79.5901 13.736 80.0381 13.48C80.4967 13.2133 80.8594 12.8347 81.1261 12.344C81.3927 11.8427 81.5261 11.2613 81.5261 10.6ZM92.8282 15.144C92.1562 15.144 91.5535 15.032 91.0202 14.808C90.4869 14.5733 90.0655 14.2533 89.7562 13.848C89.4469 13.432 89.2762 12.9573 89.2442 12.424H90.7482C90.7909 12.8613 90.9935 13.2187 91.3562 13.496C91.7295 13.7733 92.2149 13.912 92.8122 13.912C93.3669 13.912 93.8042 13.7893 94.1242 13.544C94.4442 13.2987 94.6042 12.9893 94.6042 12.616C94.6042 12.232 94.4335 11.9493 94.0922 11.768C93.7509 11.576 93.2229 11.3893 92.5082 11.208C91.8575 11.0373 91.3242 10.8667 90.9082 10.696C90.5029 10.5147 90.1509 10.2533 89.8522 9.912C89.5642 9.56 89.4202 9.10133 89.4202 8.536C89.4202 8.088 89.5535 7.67733 89.8202 7.304C90.0869 6.93067 90.4655 6.63733 90.9562 6.424C91.4469 6.2 92.0069 6.088 92.6362 6.088C93.6069 6.088 94.3909 6.33333 94.9882 6.824C95.5855 7.31467 95.9055 7.98667 95.9482 8.84H94.4922C94.4602 8.38133 94.2735 8.01333 93.9322 7.736C93.6015 7.45867 93.1535 7.32 92.5882 7.32C92.0655 7.32 91.6495 7.432 91.3402 7.656C91.0309 7.88 90.8762 8.17333 90.8762 8.536C90.8762 8.824 90.9669 9.064 91.1482 9.256C91.3402 9.43733 91.5749 9.58667 91.8522 9.704C92.1402 9.81067 92.5349 9.93333 93.0362 10.072C93.6655 10.2427 94.1775 10.4133 94.5722 10.584C94.9669 10.744 95.3029 10.9893 95.5802 11.32C95.8682 11.6507 96.0175 12.0827 96.0282 12.616C96.0282 13.096 95.8949 13.528 95.6282 13.912C95.3615 14.296 94.9829 14.6 94.4922 14.824C94.0122 15.0373 93.4575 15.144 92.8282 15.144ZM99.5396 7.848C99.8276 7.34667 100.254 6.93067 100.82 6.6C101.396 6.25867 102.062 6.088 102.82 6.088C103.598 6.088 104.302 6.27467 104.932 6.648C105.572 7.02133 106.073 7.54933 106.436 8.232C106.798 8.904 106.98 9.688 106.98 10.584C106.98 11.4693 106.798 12.2587 106.436 12.952C106.073 13.6453 105.572 14.184 104.932 14.568C104.302 14.952 103.598 15.144 102.82 15.144C102.073 15.144 101.412 14.9787 100.836 14.648C100.27 14.3067 99.8382 13.8853 99.5396 13.384V19.16H98.0836V6.232H99.5396V7.848ZM105.492 10.584C105.492 9.92267 105.358 9.34667 105.092 8.856C104.825 8.36533 104.462 7.992 104.004 7.736C103.556 7.48 103.06 7.352 102.516 7.352C101.982 7.352 101.486 7.48533 101.028 7.752C100.58 8.008 100.217 8.38667 99.9396 8.888C99.6729 9.37867 99.5396 9.94933 99.5396 10.6C99.5396 11.2613 99.6729 11.8427 99.9396 12.344C100.217 12.8347 100.58 13.2133 101.028 13.48C101.486 13.736 101.982 13.864 102.516 13.864C103.06 13.864 103.556 13.736 104.004 13.48C104.462 13.2133 104.825 12.8347 105.092 12.344C105.358 11.8427 105.492 11.256 105.492 10.584ZM116.896 10.28C116.896 10.5573 116.88 10.8507 116.848 11.16H109.84C109.893 12.024 110.187 12.7013 110.72 13.192C111.264 13.672 111.92 13.912 112.688 13.912C113.317 13.912 113.84 13.768 114.256 13.48C114.683 13.1813 114.981 12.7867 115.152 12.296H116.72C116.485 13.1387 116.016 13.8267 115.312 14.36C114.608 14.8827 113.733 15.144 112.688 15.144C111.856 15.144 111.109 14.9573 110.448 14.584C109.797 14.2107 109.285 13.6827 108.912 13C108.539 12.3067 108.352 11.5067 108.352 10.6C108.352 9.69333 108.533 8.89867 108.896 8.216C109.259 7.53333 109.765 7.01067 110.416 6.648C111.077 6.27467 111.835 6.088 112.688 6.088C113.52 6.088 114.256 6.26933 114.896 6.632C115.536 6.99467 116.027 7.496 116.368 8.136C116.72 8.76533 116.896 9.48 116.896 10.28ZM115.392 9.976C115.392 9.42133 115.269 8.94667 115.024 8.552C114.779 8.14667 114.443 7.84267 114.016 7.64C113.6 7.42667 113.136 7.32 112.624 7.32C111.888 7.32 111.259 7.55467 110.736 8.024C110.224 8.49333 109.931 9.144 109.856 9.976H115.392ZM118.274 10.6C118.274 9.69333 118.455 8.904 118.818 8.232C119.181 7.54933 119.682 7.02133 120.322 6.648C120.973 6.27467 121.714 6.088 122.546 6.088C123.623 6.088 124.509 6.34933 125.202 6.872C125.906 7.39467 126.37 8.12 126.594 9.048H125.026C124.877 8.51467 124.583 8.09333 124.146 7.784C123.719 7.47467 123.186 7.32 122.546 7.32C121.714 7.32 121.042 7.608 120.53 8.184C120.018 8.74933 119.762 9.55467 119.762 10.6C119.762 11.656 120.018 12.472 120.53 13.048C121.042 13.624 121.714 13.912 122.546 13.912C123.186 13.912 123.719 13.7627 124.146 13.464C124.573 13.1653 124.866 12.7387 125.026 12.184H126.594C126.359 13.08 125.89 13.8 125.186 14.344C124.482 14.8773 123.602 15.144 122.546 15.144C121.714 15.144 120.973 14.9573 120.322 14.584C119.682 14.2107 119.181 13.6827 118.818 13C118.455 12.3173 118.274 11.5173 118.274 10.6ZM129.289 4.808C129.011 4.808 128.777 4.712 128.585 4.52C128.393 4.328 128.297 4.09333 128.297 3.816C128.297 3.53867 128.393 3.304 128.585 3.112C128.777 2.92 129.011 2.824 129.289 2.824C129.555 2.824 129.779 2.92 129.961 3.112C130.153 3.304 130.249 3.53867 130.249 3.816C130.249 4.09333 130.153 4.328 129.961 4.52C129.779 4.712 129.555 4.808 129.289 4.808ZM129.993 6.232V15H128.537V6.232H129.993ZM131.93 10.584C131.93 9.688 132.112 8.904 132.474 8.232C132.837 7.54933 133.333 7.02133 133.962 6.648C134.602 6.27467 135.312 6.088 136.09 6.088C136.858 6.088 137.525 6.25333 138.09 6.584C138.656 6.91467 139.077 7.33067 139.354 7.832V6.232H140.826V15H139.354V13.368C139.066 13.88 138.634 14.3067 138.058 14.648C137.493 14.9787 136.832 15.144 136.074 15.144C135.296 15.144 134.592 14.952 133.962 14.568C133.333 14.184 132.837 13.6453 132.474 12.952C132.112 12.2587 131.93 11.4693 131.93 10.584ZM139.354 10.6C139.354 9.93867 139.221 9.36267 138.954 8.872C138.688 8.38133 138.325 8.008 137.866 7.752C137.418 7.48533 136.922 7.352 136.378 7.352C135.834 7.352 135.338 7.48 134.89 7.736C134.442 7.992 134.085 8.36533 133.818 8.856C133.552 9.34667 133.418 9.92267 133.418 10.584C133.418 11.256 133.552 11.8427 133.818 12.344C134.085 12.8347 134.442 13.2133 134.89 13.48C135.338 13.736 135.834 13.864 136.378 13.864C136.922 13.864 137.418 13.736 137.866 13.48C138.325 13.2133 138.688 12.8347 138.954 12.344C139.221 11.8427 139.354 11.2613 139.354 10.6ZM144.743 3.16V15H143.287V3.16H144.743ZM11.2028 22.808C10.9254 22.808 10.6908 22.712 10.4988 22.52C10.3068 22.328 10.2108 22.0933 10.2108 21.816C10.2108 21.5387 10.3068 21.304 10.4988 21.112C10.6908 20.92 10.9254 20.824 11.2028 20.824C11.4694 20.824 11.6934 20.92 11.8748 21.112C12.0668 21.304 12.1628 21.5387 12.1628 21.816C12.1628 22.0933 12.0668 22.328 11.8748 22.52C11.6934 22.712 11.4694 22.808 11.2028 22.808ZM11.9068 24.232V33H10.4508V24.232H11.9068ZM18.6603 24.072C19.7269 24.072 20.5909 24.3973 21.2523 25.048C21.9136 25.688 22.2443 26.616 22.2443 27.832V33H20.8043V28.04C20.8043 27.1653 20.5856 26.4987 20.1483 26.04C19.7109 25.5707 19.1136 25.336 18.3563 25.336C17.5883 25.336 16.9749 25.576 16.5163 26.056C16.0683 26.536 15.8443 27.2347 15.8443 28.152V33H14.3883V24.232H15.8443V25.48C16.1323 25.032 16.5216 24.6853 17.0123 24.44C17.5136 24.1947 18.0629 24.072 18.6603 24.072ZM26.3986 25.432V30.6C26.3986 31.0267 26.4893 31.3307 26.6706 31.512C26.852 31.6827 27.1666 31.768 27.6146 31.768H28.6866V33H27.3746C26.564 33 25.956 32.8133 25.5506 32.44C25.1453 32.0667 24.9426 31.4533 24.9426 30.6V25.432H23.8066V24.232H24.9426V22.024H26.3986V24.232H28.6866V25.432H26.3986ZM38.4508 28.28C38.4508 28.5573 38.4348 28.8507 38.4028 29.16H31.3948C31.4481 30.024 31.7414 30.7013 32.2748 31.192C32.8188 31.672 33.4748 31.912 34.2428 31.912C34.8721 31.912 35.3948 31.768 35.8108 31.48C36.2374 31.1813 36.5361 30.7867 36.7068 30.296H38.2748C38.0401 31.1387 37.5708 31.8267 36.8668 32.36C36.1628 32.8827 35.2881 33.144 34.2428 33.144C33.4108 33.144 32.6641 32.9573 32.0028 32.584C31.3521 32.2107 30.8401 31.6827 30.4668 31C30.0934 30.3067 29.9068 29.5067 29.9068 28.6C29.9068 27.6933 30.0881 26.8987 30.4508 26.216C30.8134 25.5333 31.3201 25.0107 31.9708 24.648C32.6321 24.2747 33.3894 24.088 34.2428 24.088C35.0748 24.088 35.8108 24.2693 36.4508 24.632C37.0908 24.9947 37.5814 25.496 37.9228 26.136C38.2748 26.7653 38.4508 27.48 38.4508 28.28ZM36.9468 27.976C36.9468 27.4213 36.8241 26.9467 36.5788 26.552C36.3334 26.1467 35.9974 25.8427 35.5708 25.64C35.1548 25.4267 34.6908 25.32 34.1788 25.32C33.4428 25.32 32.8134 25.5547 32.2908 26.024C31.7788 26.4933 31.4854 27.144 31.4108 27.976H36.9468ZM41.8286 25.656C42.0846 25.1547 42.4473 24.7653 42.9166 24.488C43.3966 24.2107 43.978 24.072 44.6606 24.072V25.576H44.2766C42.6446 25.576 41.8286 26.4613 41.8286 28.232V33H40.3726V24.232H41.8286V25.656ZM54.3414 28.28C54.3414 28.5573 54.3254 28.8507 54.2934 29.16H47.2854C47.3387 30.024 47.632 30.7013 48.1654 31.192C48.7094 31.672 49.3654 31.912 50.1334 31.912C50.7627 31.912 51.2854 31.768 51.7014 31.48C52.128 31.1813 52.4267 30.7867 52.5974 30.296H54.1654C53.9307 31.1387 53.4614 31.8267 52.7574 32.36C52.0534 32.8827 51.1787 33.144 50.1334 33.144C49.3014 33.144 48.5547 32.9573 47.8934 32.584C47.2427 32.2107 46.7307 31.6827 46.3574 31C45.984 30.3067 45.7974 29.5067 45.7974 28.6C45.7974 27.6933 45.9787 26.8987 46.3414 26.216C46.704 25.5333 47.2107 25.0107 47.8614 24.648C48.5227 24.2747 49.28 24.088 50.1334 24.088C50.9654 24.088 51.7014 24.2693 52.3414 24.632C52.9814 24.9947 53.472 25.496 53.8134 26.136C54.1654 26.7653 54.3414 27.48 54.3414 28.28ZM52.8374 27.976C52.8374 27.4213 52.7147 26.9467 52.4694 26.552C52.224 26.1467 51.888 25.8427 51.4614 25.64C51.0454 25.4267 50.5814 25.32 50.0694 25.32C49.3334 25.32 48.704 25.5547 48.1814 26.024C47.6694 26.4933 47.376 27.144 47.3014 27.976H52.8374ZM59.3673 33.144C58.6953 33.144 58.0926 33.032 57.5593 32.808C57.0259 32.5733 56.6046 32.2533 56.2953 31.848C55.9859 31.432 55.8153 30.9573 55.7833 30.424H57.2873C57.3299 30.8613 57.5326 31.2187 57.8953 31.496C58.2686 31.7733 58.7539 31.912 59.3513 31.912C59.9059 31.912 60.3433 31.7893 60.6633 31.544C60.9833 31.2987 61.1433 30.9893 61.1433 30.616C61.1433 30.232 60.9726 29.9493 60.6313 29.768C60.2899 29.576 59.7619 29.3893 59.0473 29.208C58.3966 29.0373 57.8633 28.8667 57.4473 28.696C57.0419 28.5147 56.6899 28.2533 56.3913 27.912C56.1033 27.56 55.9593 27.1013 55.9593 26.536C55.9593 26.088 56.0926 25.6773 56.3593 25.304C56.6259 24.9307 57.0046 24.6373 57.4953 24.424C57.9859 24.2 58.5459 24.088 59.1753 24.088C60.1459 24.088 60.9299 24.3333 61.5273 24.824C62.1246 25.3147 62.4446 25.9867 62.4873 26.84H61.0313C60.9993 26.3813 60.8126 26.0133 60.4713 25.736C60.1406 25.4587 59.6926 25.32 59.1273 25.32C58.6046 25.32 58.1886 25.432 57.8793 25.656C57.5699 25.88 57.4153 26.1733 57.4153 26.536C57.4153 26.824 57.5059 27.064 57.6873 27.256C57.8793 27.4373 58.1139 27.5867 58.3913 27.704C58.6793 27.8107 59.0739 27.9333 59.5753 28.072C60.2046 28.2427 60.7166 28.4133 61.1113 28.584C61.5059 28.744 61.8419 28.9893 62.1193 29.32C62.4073 29.6507 62.5566 30.0827 62.5673 30.616C62.5673 31.096 62.4339 31.528 62.1673 31.912C61.9006 32.296 61.5219 32.6 61.0313 32.824C60.5513 33.0373 59.9966 33.144 59.3673 33.144ZM66.3986 25.432V30.6C66.3986 31.0267 66.4893 31.3307 66.6706 31.512C66.852 31.6827 67.1666 31.768 67.6146 31.768H68.6866V33H67.3746C66.564 33 65.956 32.8133 65.5506 32.44C65.1453 32.0667 64.9426 31.4533 64.9426 30.6V25.432H63.8066V24.232H64.9426V22.024H66.3986V24.232H68.6866V25.432H66.3986ZM75.4684 22.808C75.191 22.808 74.9564 22.712 74.7644 22.52C74.5724 22.328 74.4764 22.0933 74.4764 21.816C74.4764 21.5387 74.5724 21.304 74.7644 21.112C74.9564 20.92 75.191 20.824 75.4684 20.824C75.735 20.824 75.959 20.92 76.1404 21.112C76.3324 21.304 76.4284 21.5387 76.4284 21.816C76.4284 22.0933 76.3324 22.328 76.1404 22.52C75.959 22.712 75.735 22.808 75.4684 22.808ZM76.1724 24.232V33H74.7164V24.232H76.1724ZM82.9259 24.072C83.9925 24.072 84.8565 24.3973 85.5179 25.048C86.1792 25.688 86.5099 26.616 86.5099 27.832V33H85.0699V28.04C85.0699 27.1653 84.8512 26.4987 84.4139 26.04C83.9765 25.5707 83.3792 25.336 82.6219 25.336C81.8539 25.336 81.2405 25.576 80.7819 26.056C80.3339 26.536 80.1099 27.2347 80.1099 28.152V33H78.6539V24.232H80.1099V25.48C80.3979 25.032 80.7872 24.6853 81.2779 24.44C81.7792 24.1947 82.3285 24.072 82.9259 24.072ZM94.6099 21.16V33H93.1539V21.16H94.6099ZM105.091 28.28C105.091 28.5573 105.075 28.8507 105.043 29.16H98.0354C98.0887 30.024 98.382 30.7013 98.9154 31.192C99.4594 31.672 100.115 31.912 100.883 31.912C101.513 31.912 102.035 31.768 102.451 31.48C102.878 31.1813 103.177 30.7867 103.347 30.296H104.915C104.681 31.1387 104.211 31.8267 103.507 32.36C102.803 32.8827 101.929 33.144 100.883 33.144C100.051 33.144 99.3047 32.9573 98.6434 32.584C97.9927 32.2107 97.4807 31.6827 97.1074 31C96.734 30.3067 96.5474 29.5067 96.5474 28.6C96.5474 27.6933 96.7287 26.8987 97.0914 26.216C97.454 25.5333 97.9607 25.0107 98.6114 24.648C99.2727 24.2747 100.03 24.088 100.883 24.088C101.715 24.088 102.451 24.2693 103.091 24.632C103.731 24.9947 104.222 25.496 104.563 26.136C104.915 26.7653 105.091 27.48 105.091 28.28ZM103.587 27.976C103.587 27.4213 103.465 26.9467 103.219 26.552C102.974 26.1467 102.638 25.8427 102.211 25.64C101.795 25.4267 101.331 25.32 100.819 25.32C100.083 25.32 99.454 25.5547 98.9314 26.024C98.4194 26.4933 98.126 27.144 98.0514 27.976H103.587ZM106.469 28.584C106.469 27.688 106.651 26.904 107.013 26.232C107.376 25.5493 107.872 25.0213 108.501 24.648C109.141 24.2747 109.851 24.088 110.629 24.088C111.397 24.088 112.064 24.2533 112.629 24.584C113.195 24.9147 113.616 25.3307 113.893 25.832V24.232H115.365V33H113.893V31.368C113.605 31.88 113.173 32.3067 112.597 32.648C112.032 32.9787 111.371 33.144 110.613 33.144C109.835 33.144 109.131 32.952 108.501 32.568C107.872 32.184 107.376 31.6453 107.013 30.952C106.651 30.2587 106.469 29.4693 106.469 28.584ZM113.893 28.6C113.893 27.9387 113.76 27.3627 113.493 26.872C113.227 26.3813 112.864 26.008 112.405 25.752C111.957 25.4853 111.461 25.352 110.917 25.352C110.373 25.352 109.877 25.48 109.429 25.736C108.981 25.992 108.624 26.3653 108.357 26.856C108.091 27.3467 107.957 27.9227 107.957 28.584C107.957 29.256 108.091 29.8427 108.357 30.344C108.624 30.8347 108.981 31.2133 109.429 31.48C109.877 31.736 110.373 31.864 110.917 31.864C111.461 31.864 111.957 31.736 112.405 31.48C112.864 31.2133 113.227 30.8347 113.493 30.344C113.76 29.8427 113.893 29.2613 113.893 28.6ZM119.282 25.656C119.538 25.1547 119.9 24.7653 120.37 24.488C120.85 24.2107 121.431 24.072 122.114 24.072V25.576H121.73C120.098 25.576 119.282 26.4613 119.282 28.232V33H117.826V24.232H119.282V25.656ZM128.067 24.072C129.133 24.072 129.997 24.3973 130.659 25.048C131.32 25.688 131.651 26.616 131.651 27.832V33H130.211V28.04C130.211 27.1653 129.992 26.4987 129.555 26.04C129.117 25.5707 128.52 25.336 127.763 25.336C126.995 25.336 126.381 25.576 125.923 26.056C125.475 26.536 125.251 27.2347 125.251 28.152V33H123.795V24.232H125.251V25.48C125.539 25.032 125.928 24.6853 126.419 24.44C126.92 24.1947 127.469 24.072 128.067 24.072ZM134.781 22.808C134.504 22.808 134.269 22.712 134.077 22.52C133.885 22.328 133.789 22.0933 133.789 21.816C133.789 21.5387 133.885 21.304 134.077 21.112C134.269 20.92 134.504 20.824 134.781 20.824C135.048 20.824 135.272 20.92 135.453 21.112C135.645 21.304 135.741 21.5387 135.741 21.816C135.741 22.0933 135.645 22.328 135.453 22.52C135.272 22.712 135.048 22.808 134.781 22.808ZM135.485 24.232V33H134.029V24.232H135.485ZM142.238 24.072C143.305 24.072 144.169 24.3973 144.83 25.048C145.492 25.688 145.822 26.616 145.822 27.832V33H144.382V28.04C144.382 27.1653 144.164 26.4987 143.726 26.04C143.289 25.5707 142.692 25.336 141.934 25.336C141.166 25.336 140.553 25.576 140.094 26.056C139.646 26.536 139.422 27.2347 139.422 28.152V33H137.966V24.232H139.422V25.48C139.71 25.032 140.1 24.6853 140.59 24.44C141.092 24.1947 141.641 24.072 142.238 24.072ZM151.817 24.088C152.574 24.088 153.235 24.2533 153.801 24.584C154.377 24.9147 154.803 25.3307 155.081 25.832V24.232H156.553V33.192C156.553 33.992 156.382 34.7013 156.041 35.32C155.699 35.9493 155.209 36.44 154.569 36.792C153.939 37.144 153.203 37.32 152.361 37.32C151.209 37.32 150.249 37.048 149.481 36.504C148.713 35.96 148.259 35.2187 148.121 34.28H149.561C149.721 34.8133 150.051 35.24 150.553 35.56C151.054 35.8907 151.657 36.056 152.361 36.056C153.161 36.056 153.811 35.8053 154.313 35.304C154.825 34.8027 155.081 34.0987 155.081 33.192V31.352C154.793 31.864 154.366 32.2907 153.801 32.632C153.235 32.9733 152.574 33.144 151.817 33.144C151.038 33.144 150.329 32.952 149.689 32.568C149.059 32.184 148.563 31.6453 148.201 30.952C147.838 30.2587 147.657 29.4693 147.657 28.584C147.657 27.688 147.838 26.904 148.201 26.232C148.563 25.5493 149.059 25.0213 149.689 24.648C150.329 24.2747 151.038 24.088 151.817 24.088ZM155.081 28.6C155.081 27.9387 154.947 27.3627 154.681 26.872C154.414 26.3813 154.051 26.008 153.593 25.752C153.145 25.4853 152.649 25.352 152.105 25.352C151.561 25.352 151.065 25.48 150.617 25.736C150.169 25.992 149.811 26.3653 149.545 26.856C149.278 27.3467 149.145 27.9227 149.145 28.584C149.145 29.256 149.278 29.8427 149.545 30.344C149.811 30.8347 150.169 31.2133 150.617 31.48C151.065 31.736 151.561 31.864 152.105 31.864C152.649 31.864 153.145 31.736 153.593 31.48C154.051 31.2133 154.414 30.8347 154.681 30.344C154.947 29.8427 155.081 29.2613 155.081 28.6Z" fill="black"/>
<path d="M54.993 64.4443C56.5675 64.4443 57.8439 63.1674 57.8439 61.5922C57.8439 60.017 56.5675 58.74 54.993 58.74C53.4185 58.74 52.1421 60.017 52.1421 61.5922C52.1421 63.1674 53.4185 64.4443 54.993 64.4443Z" fill="#61DAFB"/>
<path d="M70.9861 61.5921C70.9861 59.3521 68.3577 57.4043 64.269 56.2356C65.2981 52.1034 64.9365 48.8477 62.9896 47.7347C61.0426 46.6077 58.0526 47.9295 54.993 50.8791C51.9335 47.9156 48.9435 46.6077 46.9965 47.7347C45.3833 48.6669 44.7853 51.0321 45.3277 54.3991C45.425 54.9973 45.5641 55.6095 45.7171 56.2495C41.6284 57.4182 39 59.366 39 61.606C39 63.846 41.6284 65.7799 45.7171 66.9625C45.5641 67.5886 45.425 68.2147 45.3277 68.813C44.7853 72.1799 45.3833 74.5451 46.9965 75.4773C47.4694 75.7556 48.0117 75.8947 48.6097 75.8947C50.0282 75.8947 51.7388 75.1156 53.6023 73.5991C54.0613 73.2234 54.5341 72.7921 54.993 72.3469C55.452 72.7921 55.9248 73.2234 56.3837 73.5991C58.2473 75.1156 59.9578 75.8947 61.3764 75.8947C61.9744 75.8947 62.5167 75.7556 62.9896 75.4773C64.6028 74.5451 65.2008 72.1799 64.6723 68.813C64.575 68.2147 64.4359 67.6025 64.2829 66.9625C68.3716 65.7938 71 63.846 71 61.606L70.9861 61.5921ZM62.2942 48.9312C63.5458 49.6547 63.824 52.2982 62.92 55.8877C61.6128 55.5817 60.1804 55.3591 58.6645 55.2199C57.7884 53.9817 56.8705 52.8547 55.9665 51.8669C58.0804 49.8217 60.0413 48.7086 61.3903 48.7086C61.7379 48.7086 62.0439 48.7782 62.3081 48.9312H62.2942ZM59.4572 64.166C58.9565 65.0147 58.442 65.8495 57.9135 66.6286C56.9817 66.6982 56.0083 66.7399 55.007 66.7399C54.0056 66.7399 53.0322 66.6982 52.1004 66.6286C51.5719 65.8495 51.0435 65.0147 50.5567 64.166C50.0561 63.3034 49.611 62.4547 49.1938 61.5921C49.611 60.7295 50.0561 59.8808 50.5567 59.0182C51.0574 58.1417 51.5858 57.3208 52.1004 56.5556C53.0322 56.486 54.0056 56.4443 55.007 56.4443C56.0083 56.4443 56.9817 56.486 57.9135 56.5556C58.442 57.3208 58.9565 58.1417 59.4572 59.0182C59.9439 59.8669 60.4029 60.7295 60.8201 61.5921C60.4168 62.4408 59.9718 63.2895 59.4572 64.166ZM61.5432 63.2199C61.9326 64.1521 62.2664 65.0564 62.5445 65.9469C61.6545 66.1417 60.6949 66.3225 59.6797 66.4477C60.0135 65.933 60.3333 65.4043 60.6532 64.8617C60.9731 64.3191 61.2651 63.7625 61.5432 63.2199ZM54.993 70.3156C54.3672 69.6338 53.7414 68.8825 53.1295 68.0756C53.7414 68.1034 54.3533 68.1173 54.993 68.1173C55.6328 68.1173 56.2447 68.1034 56.8566 68.0756C56.2447 68.8825 55.6189 69.6199 54.993 70.3156ZM50.3064 66.4477C49.2912 66.3225 48.3316 66.1556 47.4415 65.9469C47.7197 65.0564 48.0535 64.1521 48.4429 63.2199C48.721 63.7625 49.013 64.3191 49.3329 64.8617C49.6528 65.4043 49.9726 65.933 50.3064 66.4477ZM48.4429 59.9504C48.0535 59.0182 47.7197 58.1138 47.4415 57.2234C48.3316 57.0286 49.2912 56.8477 50.3064 56.7225C49.9726 57.2373 49.6528 57.766 49.3329 58.3086C49.013 58.8512 48.721 59.3938 48.4429 59.9504ZM54.993 52.8547C55.605 53.5225 56.2308 54.2738 56.8566 55.0947C56.2447 55.0669 55.6328 55.053 54.993 55.053C54.3533 55.053 53.7414 55.0669 53.1295 55.0947C53.7553 54.2738 54.3672 53.5225 54.993 52.8547ZM60.6532 58.3225C60.3333 57.7799 60.0135 57.2512 59.6797 56.7364C60.6949 56.8617 61.6545 57.0286 62.5445 57.2373C62.2803 58.1138 61.9465 59.0182 61.5432 59.9643C61.2651 59.4217 60.9591 58.8651 60.6532 58.3225ZM46.6906 54.1764C46.2595 51.4634 46.621 49.5573 47.6919 48.9451C47.9561 48.7921 48.2621 48.7225 48.6097 48.7225C49.9587 48.7225 51.9196 49.8356 54.0335 51.8808C53.1156 52.8686 52.2116 53.9956 51.3355 55.2338C49.8196 55.373 48.3872 55.5956 47.08 55.9017C46.927 55.3173 46.8018 54.733 46.7184 54.1904L46.6906 54.1764ZM40.3907 61.5921C40.3907 60.1451 42.5324 58.5869 46.0926 57.5712C46.4959 58.8651 47.0243 60.2147 47.6502 61.5921C47.0243 62.9556 46.4959 64.3051 46.0926 65.613C42.5463 64.5973 40.3907 63.053 40.3907 61.5921ZM52.7262 72.486C50.5984 74.2112 48.7627 74.8512 47.6919 74.2391C46.621 73.6269 46.2595 71.7069 46.6906 69.0077C46.774 68.4512 46.9131 67.8808 47.0522 67.2964C48.3594 67.6025 49.7918 67.8251 51.3077 67.9643C52.1838 69.1886 53.0878 70.3295 54.0056 71.3312C53.5745 71.7486 53.1434 72.1521 52.7123 72.4999L52.7262 72.486ZM63.2955 69.0077C63.7266 71.7208 63.3651 73.6269 62.2942 74.2391C61.2234 74.8512 59.3877 74.2112 57.2599 72.486C56.8288 72.1382 56.3977 71.7347 55.9665 71.3173C56.8983 70.3156 57.8023 69.1886 58.6645 67.9643C60.1804 67.8251 61.6128 67.6025 62.92 67.2964C63.073 67.8808 63.1982 68.4651 63.2816 69.0077H63.2955ZM63.8935 65.5991C63.4902 64.3051 62.9618 62.9556 62.3359 61.5782C62.9757 60.1869 63.4902 58.8373 63.8935 57.5573C67.4537 58.573 69.5954 60.1173 69.5954 61.5782C69.5954 63.0391 67.4537 64.5834 63.8935 65.5991Z" fill="#61DAFB"/>
<path d="M42.2861 94L40.5341 90.82H40.0421V94H37.9901V85.576H41.4341C42.0981 85.576 42.6621 85.692 43.1261 85.924C43.5981 86.156 43.9501 86.476 44.1821 86.884C44.4141 87.284 44.5301 87.732 44.5301 88.228C44.5301 88.788 44.3701 89.288 44.0501 89.728C43.7381 90.168 43.2741 90.48 42.6581 90.664L44.6021 94H42.2861ZM40.0421 89.368H41.3141C41.6901 89.368 41.9701 89.276 42.1541 89.092C42.3461 88.908 42.4421 88.648 42.4421 88.312C42.4421 87.992 42.3461 87.74 42.1541 87.556C41.9701 87.372 41.6901 87.28 41.3141 87.28H40.0421V89.368ZM52.1302 90.544C52.1302 90.736 52.1182 90.936 52.0942 91.144H47.4502C47.4822 91.56 47.6142 91.88 47.8462 92.104C48.0862 92.32 48.3782 92.428 48.7222 92.428C49.2342 92.428 49.5902 92.212 49.7902 91.78H51.9742C51.8622 92.22 51.6582 92.616 51.3622 92.968C51.0742 93.32 50.7102 93.596 50.2702 93.796C49.8302 93.996 49.3382 94.096 48.7942 94.096C48.1382 94.096 47.5542 93.956 47.0422 93.676C46.5302 93.396 46.1302 92.996 45.8422 92.476C45.5542 91.956 45.4102 91.348 45.4102 90.652C45.4102 89.956 45.5502 89.348 45.8302 88.828C46.1182 88.308 46.5182 87.908 47.0302 87.628C47.5422 87.348 48.1302 87.208 48.7942 87.208C49.4422 87.208 50.0182 87.344 50.5222 87.616C51.0262 87.888 51.4182 88.276 51.6982 88.78C51.9862 89.284 52.1302 89.872 52.1302 90.544ZM50.0302 90.004C50.0302 89.652 49.9102 89.372 49.6702 89.164C49.4302 88.956 49.1302 88.852 48.7702 88.852C48.4262 88.852 48.1342 88.952 47.8942 89.152C47.6622 89.352 47.5182 89.636 47.4622 90.004H50.0302ZM52.8048 90.64C52.8048 89.952 52.9328 89.348 53.1888 88.828C53.4528 88.308 53.8088 87.908 54.2568 87.628C54.7048 87.348 55.2048 87.208 55.7568 87.208C56.2288 87.208 56.6408 87.304 56.9928 87.496C57.3528 87.688 57.6288 87.94 57.8208 88.252V87.304H59.8728V94H57.8208V93.052C57.6208 93.364 57.3408 93.616 56.9808 93.808C56.6288 94 56.2168 94.096 55.7448 94.096C55.2008 94.096 54.7048 93.956 54.2568 93.676C53.8088 93.388 53.4528 92.984 53.1888 92.464C52.9328 91.936 52.8048 91.328 52.8048 90.64ZM57.8208 90.652C57.8208 90.14 57.6768 89.736 57.3888 89.44C57.1088 89.144 56.7648 88.996 56.3568 88.996C55.9488 88.996 55.6008 89.144 55.3128 89.44C55.0328 89.728 54.8928 90.128 54.8928 90.64C54.8928 91.152 55.0328 91.56 55.3128 91.864C55.6008 92.16 55.9488 92.308 56.3568 92.308C56.7648 92.308 57.1088 92.16 57.3888 91.864C57.6768 91.568 57.8208 91.164 57.8208 90.652ZM60.9493 90.652C60.9493 89.956 61.0893 89.348 61.3693 88.828C61.6573 88.308 62.0533 87.908 62.5573 87.628C63.0693 87.348 63.6533 87.208 64.3093 87.208C65.1493 87.208 65.8493 87.428 66.4093 87.868C66.9773 88.308 67.3493 88.928 67.5253 89.728H65.3413C65.1573 89.216 64.8013 88.96 64.2733 88.96C63.8973 88.96 63.5973 89.108 63.3733 89.404C63.1493 89.692 63.0373 90.108 63.0373 90.652C63.0373 91.196 63.1493 91.616 63.3733 91.912C63.5973 92.2 63.8973 92.344 64.2733 92.344C64.8013 92.344 65.1573 92.088 65.3413 91.576H67.5253C67.3493 92.36 66.9773 92.976 66.4093 93.424C65.8413 93.872 65.1413 94.096 64.3093 94.096C63.6533 94.096 63.0693 93.956 62.5573 93.676C62.0533 93.396 61.6573 92.996 61.3693 92.476C61.0893 91.956 60.9493 91.348 60.9493 90.652ZM72.3549 92.26V94H71.3109C70.5669 94 69.9869 93.82 69.5709 93.46C69.1549 93.092 68.9469 92.496 68.9469 91.672V89.008H68.1309V87.304H68.9469V85.672H70.9989V87.304H72.3429V89.008H70.9989V91.696C70.9989 91.896 71.0469 92.04 71.1429 92.128C71.2389 92.216 71.3989 92.26 71.6229 92.26H72.3549Z" fill="black"/>
<g clip-path="url(#clip0_105102_3280)">
<path d="M113.195 48.6667L109.501 55.0667L105.805 48.6667H93.5L109.501 76.3805L125.5 48.6667H113.195Z" fill="#41B883"/>
<path d="M113.195 48.6667L109.501 55.0667L105.805 48.6667H99.9001L109.501 65.2945L119.1 48.6667H113.195Z" fill="#34495E"/>
</g>
<path d="M97.943 85.576L94.955 94H92.387L89.399 85.576H91.583L93.671 91.936L95.771 85.576H97.943ZM105.413 87.304V94H103.361V93.088C103.153 93.384 102.869 93.624 102.509 93.808C102.157 93.984 101.765 94.072 101.333 94.072C100.821 94.072 100.369 93.96 99.9766 93.736C99.5846 93.504 99.2806 93.172 99.0646 92.74C98.8486 92.308 98.7406 91.8 98.7406 91.216V87.304H100.781V90.94C100.781 91.388 100.897 91.736 101.129 91.984C101.361 92.232 101.673 92.356 102.065 92.356C102.465 92.356 102.781 92.232 103.013 91.984C103.245 91.736 103.361 91.388 103.361 90.94V87.304H105.413ZM113.199 90.544C113.199 90.736 113.187 90.936 113.163 91.144H108.519C108.551 91.56 108.683 91.88 108.915 92.104C109.155 92.32 109.447 92.428 109.791 92.428C110.303 92.428 110.659 92.212 110.859 91.78H113.043C112.931 92.22 112.727 92.616 112.431 92.968C112.143 93.32 111.779 93.596 111.339 93.796C110.899 93.996 110.407 94.096 109.863 94.096C109.207 94.096 108.623 93.956 108.111 93.676C107.599 93.396 107.199 92.996 106.911 92.476C106.623 91.956 106.479 91.348 106.479 90.652C106.479 89.956 106.619 89.348 106.899 88.828C107.187 88.308 107.587 87.908 108.099 87.628C108.611 87.348 109.199 87.208 109.863 87.208C110.511 87.208 111.087 87.344 111.591 87.616C112.095 87.888 112.487 88.276 112.767 88.78C113.055 89.284 113.199 89.872 113.199 90.544ZM111.099 90.004C111.099 89.652 110.979 89.372 110.739 89.164C110.499 88.956 110.199 88.852 109.839 88.852C109.495 88.852 109.203 88.952 108.963 89.152C108.731 89.352 108.587 89.636 108.531 90.004H111.099ZM122.104 85.576V91.312C122.104 92.2 121.852 92.884 121.348 93.364C120.852 93.844 120.18 94.084 119.332 94.084C118.444 94.084 117.732 93.832 117.196 93.328C116.66 92.824 116.392 92.108 116.392 91.18H118.432C118.432 91.532 118.504 91.8 118.648 91.984C118.792 92.16 119 92.248 119.272 92.248C119.52 92.248 119.712 92.168 119.848 92.008C119.984 91.848 120.052 91.616 120.052 91.312V85.576H122.104ZM126.486 94.096C125.902 94.096 125.382 93.996 124.926 93.796C124.47 93.596 124.11 93.324 123.846 92.98C123.582 92.628 123.434 92.236 123.402 91.804H125.43C125.454 92.036 125.562 92.224 125.754 92.368C125.946 92.512 126.182 92.584 126.462 92.584C126.718 92.584 126.914 92.536 127.05 92.44C127.194 92.336 127.266 92.204 127.266 92.044C127.266 91.852 127.166 91.712 126.966 91.624C126.766 91.528 126.442 91.424 125.994 91.312C125.514 91.2 125.114 91.084 124.794 90.964C124.474 90.836 124.198 90.64 123.966 90.376C123.734 90.104 123.618 89.74 123.618 89.284C123.618 88.9 123.722 88.552 123.93 88.24C124.146 87.92 124.458 87.668 124.866 87.484C125.282 87.3 125.774 87.208 126.342 87.208C127.182 87.208 127.842 87.416 128.322 87.832C128.81 88.248 129.09 88.8 129.162 89.488H127.266C127.234 89.256 127.13 89.072 126.954 88.936C126.786 88.8 126.562 88.732 126.282 88.732C126.042 88.732 125.858 88.78 125.73 88.876C125.602 88.964 125.538 89.088 125.538 89.248C125.538 89.44 125.638 89.584 125.838 89.68C126.046 89.776 126.366 89.872 126.798 89.968C127.294 90.096 127.698 90.224 128.01 90.352C128.322 90.472 128.594 90.672 128.826 90.952C129.066 91.224 129.19 91.592 129.198 92.056C129.198 92.448 129.086 92.8 128.862 93.112C128.646 93.416 128.33 93.656 127.914 93.832C127.506 94.008 127.03 94.096 126.486 94.096Z" fill="black"/>
<defs>
<clipPath id="clip0_105102_3280">
<rect width="32" height="32" fill="white" transform="translate(93.5 46)"/>
</clipPath>
</defs>
</svg>
