<svg width="718" height="172" viewBox="0 0 718 172" fill="none" xmlns="http://www.w3.org/2000/svg">
<path d="M16.392 151.248L61 151.248L61 157.072L16.392 157.072L16.392 151.248ZM43.336 126.435C39.752 126.435 36.616 125.71 33.928 124.259C31.1973 122.809 29.0853 120.825 27.592 118.307C26.0987 115.747 25.352 112.91 25.352 109.795C25.352 106.723 26.0133 104.057 27.336 101.795C28.6587 99.5342 30.3227 97.8488 32.328 96.7395L25.928 96.7395L25.928 90.8515L61 90.8515L61 96.7395L54.472 96.7395C56.52 97.8915 58.2267 99.6195 59.592 101.923C60.9147 104.185 61.576 106.83 61.576 109.859C61.576 112.974 60.808 115.79 59.272 118.307C57.736 120.825 55.5813 122.809 52.808 124.259C50.0347 125.71 46.8773 126.435 43.336 126.435ZM43.4 96.7395C40.7547 96.7395 38.4507 97.2728 36.488 98.3395C34.5253 99.4062 33.032 100.857 32.008 102.691C30.9413 104.483 30.408 106.467 30.408 108.643C30.408 110.819 30.92 112.803 31.944 114.595C32.968 116.387 34.4613 117.817 36.424 118.883C38.3867 119.95 40.6907 120.483 43.336 120.483C46.024 120.483 48.3707 119.95 50.376 118.883C52.3387 117.817 53.8533 116.387 54.92 114.595C55.944 112.803 56.456 110.819 56.456 108.643C56.456 106.467 55.944 104.483 54.92 102.691C53.8533 100.857 52.3387 99.4062 50.376 98.3395C48.3707 97.2728 46.0453 96.7395 43.4 96.7395ZM25.288 38.8335C25.288 36.1028 25.864 33.6708 27.016 31.5375C28.1253 29.4042 29.8107 27.7188 32.072 26.4815C34.3333 25.2442 37.0853 24.6255 40.328 24.6255L61 24.6255L61 30.3855L41.16 30.3855C37.6613 30.3855 34.9947 31.2602 33.16 33.0095C31.2827 34.7162 30.344 37.0415 30.344 39.9855C30.344 43.0148 31.3253 45.4255 33.288 47.2175C35.208 49.0095 38.0027 49.9055 41.672 49.9055L61 49.9055L61 55.6655L41.16 55.6655C37.6613 55.6655 34.9947 56.5402 33.16 58.2895C31.2827 59.9962 30.344 62.3215 30.344 65.2655C30.344 68.2948 31.3253 70.7055 33.288 72.4975C35.208 74.2895 38.0027 75.1855 41.672 75.1855L61 75.1855L61 81.0095L25.928 81.0095L25.928 75.1855L30.984 75.1855C29.1493 74.0335 27.7413 72.4975 26.76 70.5775C25.7787 68.6148 25.288 66.4602 25.288 64.1135C25.288 61.1695 25.9493 58.5668 27.272 56.3055C28.5947 54.0442 30.536 52.3588 33.096 51.2495C30.6213 50.2682 28.7013 48.6468 27.336 46.3855C25.9707 44.1242 25.288 41.6068 25.288 38.8335Z" fill="white"/>
<path d="M127.25 22.82C133.91 22.82 139.73 24.14 144.71 26.78C149.69 29.42 153.53 33.14 156.23 37.94C158.99 42.68 160.37 48.17 160.37 54.41C160.37 60.59 158.99 66.08 156.23 70.88C153.53 75.68 149.66 79.4 144.62 82.04C139.64 84.68 133.85 86 127.25 86H103.58V22.82H127.25ZM126.26 72.68C132.08 72.68 136.61 71.09 139.85 67.91C143.09 64.73 144.71 60.23 144.71 54.41C144.71 48.59 143.09 44.06 139.85 40.82C136.61 37.58 132.08 35.96 126.26 35.96H118.97V72.68H126.26ZM191.831 86.72C186.911 86.72 182.471 85.67 178.511 83.57C174.611 81.47 171.521 78.47 169.241 74.57C167.021 70.67 165.911 66.11 165.911 60.89C165.911 55.73 167.051 51.2 169.331 47.3C171.611 43.34 174.731 40.31 178.691 38.21C182.651 36.11 187.091 35.06 192.011 35.06C196.931 35.06 201.371 36.11 205.331 38.21C209.291 40.31 212.411 43.34 214.691 47.3C216.971 51.2 218.111 55.73 218.111 60.89C218.111 66.05 216.941 70.61 214.601 74.57C212.321 78.47 209.171 81.47 205.151 83.57C201.191 85.67 196.751 86.72 191.831 86.72ZM191.831 73.4C194.771 73.4 197.261 72.32 199.301 70.16C201.401 68 202.451 64.91 202.451 60.89C202.451 56.87 201.431 53.78 199.391 51.62C197.411 49.46 194.951 48.38 192.011 48.38C189.011 48.38 186.521 49.46 184.541 51.62C182.561 53.72 181.571 56.81 181.571 60.89C181.571 64.91 182.531 68 184.451 70.16C186.431 72.32 188.891 73.4 191.831 73.4ZM290.355 35.24C296.595 35.24 301.545 37.13 305.205 40.91C308.925 44.69 310.785 49.94 310.785 56.66V86H295.485V58.73C295.485 55.49 294.615 53 292.875 51.26C291.195 49.46 288.855 48.56 285.855 48.56C282.855 48.56 280.485 49.46 278.745 51.26C277.065 53 276.225 55.49 276.225 58.73V86H260.925V58.73C260.925 55.49 260.055 53 258.315 51.26C256.635 49.46 254.295 48.56 251.295 48.56C248.295 48.56 245.925 49.46 244.185 51.26C242.505 53 241.665 55.49 241.665 58.73V86H226.275V35.78H241.665V42.08C243.225 39.98 245.265 38.33 247.785 37.13C250.305 35.87 253.155 35.24 256.335 35.24C260.115 35.24 263.475 36.05 266.415 37.67C269.415 39.29 271.755 41.6 273.435 44.6C275.175 41.84 277.545 39.59 280.545 37.85C283.545 36.11 286.815 35.24 290.355 35.24ZM329.289 30.56C326.589 30.56 324.369 29.78 322.629 28.22C320.949 26.6 320.109 24.62 320.109 22.28C320.109 19.88 320.949 17.9 322.629 16.34C324.369 14.72 326.589 13.91 329.289 13.91C331.929 13.91 334.089 14.72 335.769 16.34C337.509 17.9 338.379 19.88 338.379 22.28C338.379 24.62 337.509 26.6 335.769 28.22C334.089 29.78 331.929 30.56 329.289 30.56ZM336.939 35.78V86H321.549V35.78H336.939ZM378.692 35.24C384.572 35.24 389.252 37.16 392.732 41C396.272 44.78 398.042 50 398.042 56.66V86H382.742V58.73C382.742 55.37 381.872 52.76 380.132 50.9C378.392 49.04 376.052 48.11 373.112 48.11C370.172 48.11 367.832 49.04 366.092 50.9C364.352 52.76 363.482 55.37 363.482 58.73V86H348.092V35.78H363.482V42.44C365.042 40.22 367.142 38.48 369.782 37.22C372.422 35.9 375.392 35.24 378.692 35.24ZM416.476 30.56C413.776 30.56 411.556 29.78 409.816 28.22C408.136 26.6 407.296 24.62 407.296 22.28C407.296 19.88 408.136 17.9 409.816 16.34C411.556 14.72 413.776 13.91 416.476 13.91C419.116 13.91 421.276 14.72 422.956 16.34C424.696 17.9 425.566 19.88 425.566 22.28C425.566 24.62 424.696 26.6 422.956 28.22C421.276 29.78 419.116 30.56 416.476 30.56ZM424.126 35.78V86H408.736V35.78H424.126ZM465.969 86L450.669 64.94V86H435.279V19.4H450.669V56.21L465.879 35.78H484.869L463.989 60.98L485.049 86H465.969ZM542.206 86L529.066 62.15H525.376V86H509.986V22.82H535.816C540.796 22.82 545.026 23.69 548.506 25.43C552.046 27.17 554.686 29.57 556.426 32.63C558.166 35.63 559.036 38.99 559.036 42.71C559.036 46.91 557.836 50.66 555.436 53.96C553.096 57.26 549.616 59.6 544.996 60.98L559.576 86H542.206ZM525.376 51.26H534.916C537.736 51.26 539.836 50.57 541.216 49.19C542.656 47.81 543.376 45.86 543.376 43.34C543.376 40.94 542.656 39.05 541.216 37.67C539.836 36.29 537.736 35.6 534.916 35.6H525.376V51.26ZM591.557 86.72C586.637 86.72 582.197 85.67 578.237 83.57C574.337 81.47 571.247 78.47 568.967 74.57C566.747 70.67 565.637 66.11 565.637 60.89C565.637 55.73 566.777 51.2 569.057 47.3C571.337 43.34 574.457 40.31 578.417 38.21C582.377 36.11 586.817 35.06 591.737 35.06C596.657 35.06 601.097 36.11 605.057 38.21C609.017 40.31 612.137 43.34 614.417 47.3C616.697 51.2 617.837 55.73 617.837 60.89C617.837 66.05 616.667 70.61 614.327 74.57C612.047 78.47 608.897 81.47 604.877 83.57C600.917 85.67 596.477 86.72 591.557 86.72ZM591.557 73.4C594.497 73.4 596.987 72.32 599.027 70.16C601.127 68 602.177 64.91 602.177 60.89C602.177 56.87 601.157 53.78 599.117 51.62C597.137 49.46 594.677 48.38 591.737 48.38C588.737 48.38 586.247 49.46 584.267 51.62C582.287 53.72 581.297 56.81 581.297 60.89C581.297 64.91 582.257 68 584.177 70.16C586.157 72.32 588.617 73.4 591.557 73.4ZM653.992 72.95V86H646.162C640.582 86 636.232 84.65 633.112 81.95C629.992 79.19 628.432 74.72 628.432 68.54V48.56H622.312V35.78H628.432V23.54H643.822V35.78H653.902V48.56H643.822V68.72C643.822 70.22 644.182 71.3 644.902 71.96C645.622 72.62 646.822 72.95 648.502 72.95H653.992ZM693.434 35.24C699.194 35.24 703.814 37.16 707.294 41C710.774 44.78 712.514 50 712.514 56.66V86H697.214V58.73C697.214 55.37 696.344 52.76 694.604 50.9C692.864 49.04 690.524 48.11 687.584 48.11C684.644 48.11 682.304 49.04 680.564 50.9C678.824 52.76 677.954 55.37 677.954 58.73V86H662.564V19.4H677.954V42.53C679.514 40.31 681.644 38.54 684.344 37.22C687.044 35.9 690.074 35.24 693.434 35.24Z" fill="white"/>
<path d="M125.318 116.574V120.866H107.744V134.496H122.012V138.788H107.744V157H102.466V116.574H125.318ZM152.979 157L143.351 140.47H136.971V157H131.693V116.574H144.743C147.797 116.574 150.369 117.096 152.457 118.14C154.583 119.184 156.169 120.595 157.213 122.374C158.257 124.153 158.779 126.183 158.779 128.464C158.779 131.248 157.967 133.703 156.343 135.83C154.757 137.957 152.36 139.368 149.151 140.064L159.301 157H152.979ZM136.971 136.236H144.743C147.604 136.236 149.75 135.54 151.181 134.148C152.611 132.717 153.327 130.823 153.327 128.464C153.327 126.067 152.611 124.211 151.181 122.896C149.789 121.581 147.643 120.924 144.743 120.924H136.971V136.236ZM185.308 157.406C181.557 157.406 178.135 156.536 175.042 154.796C171.948 153.017 169.493 150.562 167.676 147.43C165.897 144.259 165.008 140.702 165.008 136.758C165.008 132.814 165.897 129.276 167.676 126.144C169.493 122.973 171.948 120.518 175.042 118.778C178.135 116.999 181.557 116.11 185.308 116.11C189.097 116.11 192.538 116.999 195.632 118.778C198.725 120.518 201.161 122.954 202.94 126.086C204.718 129.218 205.608 132.775 205.608 136.758C205.608 140.741 204.718 144.298 202.94 147.43C201.161 150.562 198.725 153.017 195.632 154.796C192.538 156.536 189.097 157.406 185.308 157.406ZM185.308 152.824C188.13 152.824 190.663 152.167 192.906 150.852C195.187 149.537 196.966 147.662 198.242 145.226C199.556 142.79 200.214 139.967 200.214 136.758C200.214 133.51 199.556 130.687 198.242 128.29C196.966 125.854 195.206 123.979 192.964 122.664C190.721 121.349 188.169 120.692 185.308 120.692C182.446 120.692 179.894 121.349 177.652 122.664C175.409 123.979 173.63 125.854 172.316 128.29C171.04 130.687 170.402 133.51 170.402 136.758C170.402 139.967 171.04 142.79 172.316 145.226C173.63 147.662 175.409 149.537 177.652 150.852C179.933 152.167 182.485 152.824 185.308 152.824ZM244.359 157H239.081L217.853 124.81V157H212.575V116.516H217.853L239.081 148.648V116.516H244.359V157ZM278.239 116.574V120.866H267.219V157H261.941V120.866H250.863V116.574H278.239ZM290.014 120.866V134.38H304.746V138.73H290.014V152.65H306.486V157H284.736V116.516H306.486V120.866H290.014ZM346.256 157H340.978L319.75 124.81V157H314.472V116.516H319.75L340.978 148.648V116.516H346.256V157ZM367.839 116.574C372.247 116.574 376.056 117.405 379.265 119.068C382.513 120.692 384.988 123.031 386.689 126.086C388.429 129.141 389.299 132.737 389.299 136.874C389.299 141.011 388.429 144.607 386.689 147.662C384.988 150.678 382.513 152.998 379.265 154.622C376.056 156.207 372.247 157 367.839 157H355.253V116.574H367.839ZM367.839 152.65C373.059 152.65 377.042 151.277 379.787 148.532C382.532 145.748 383.905 141.862 383.905 136.874C383.905 131.847 382.513 127.923 379.729 125.1C376.984 122.277 373.02 120.866 367.839 120.866H360.531V152.65H367.839ZM424.31 116.574C428.718 116.574 432.526 117.405 435.736 119.068C438.984 120.692 441.458 123.031 443.16 126.086C444.9 129.141 445.77 132.737 445.77 136.874C445.77 141.011 444.9 144.607 443.16 147.662C441.458 150.678 438.984 152.998 435.736 154.622C432.526 156.207 428.718 157 424.31 157H411.724V116.574H424.31ZM424.31 152.65C429.53 152.65 433.512 151.277 436.258 148.532C439.003 145.748 440.376 141.862 440.376 136.874C440.376 131.847 438.984 127.923 436.2 125.1C433.454 122.277 429.491 120.866 424.31 120.866H417.002V152.65H424.31ZM458.01 120.866V134.38H472.742V138.73H458.01V152.65H474.482V157H452.732V116.516H474.482V120.866H458.01ZM515.876 116.574L500.622 157H494.532L479.278 116.574H484.904L497.606 151.432L510.308 116.574H515.876ZM526.941 120.866V134.38H541.673V138.73H526.941V152.65H543.413V157H521.663V116.516H543.413V120.866H526.941ZM556.678 152.708H570.83V157H551.4V116.574H556.678V152.708ZM594.763 157.406C591.012 157.406 587.59 156.536 584.497 154.796C581.403 153.017 578.948 150.562 577.131 147.43C575.352 144.259 574.463 140.702 574.463 136.758C574.463 132.814 575.352 129.276 577.131 126.144C578.948 122.973 581.403 120.518 584.497 118.778C587.59 116.999 591.012 116.11 594.763 116.11C598.552 116.11 601.993 116.999 605.087 118.778C608.18 120.518 610.616 122.954 612.395 126.086C614.173 129.218 615.063 132.775 615.063 136.758C615.063 140.741 614.173 144.298 612.395 147.43C610.616 150.562 608.18 153.017 605.087 154.796C601.993 156.536 598.552 157.406 594.763 157.406ZM594.763 152.824C597.585 152.824 600.118 152.167 602.361 150.852C604.642 149.537 606.421 147.662 607.697 145.226C609.011 142.79 609.669 139.967 609.669 136.758C609.669 133.51 609.011 130.687 607.697 128.29C606.421 125.854 604.661 123.979 602.419 122.664C600.176 121.349 597.624 120.692 594.763 120.692C591.901 120.692 589.349 121.349 587.107 122.664C584.864 123.979 583.085 125.854 581.771 128.29C580.495 130.687 579.857 133.51 579.857 136.758C579.857 139.967 580.495 142.79 581.771 145.226C583.085 147.662 584.864 149.537 587.107 150.852C589.388 152.167 591.94 152.824 594.763 152.824ZM649.058 128.406C649.058 131.77 647.898 134.573 645.578 136.816C643.297 139.02 639.798 140.122 635.08 140.122H627.308V157H622.03V116.574H635.08C639.643 116.574 643.104 117.676 645.462 119.88C647.86 122.084 649.058 124.926 649.058 128.406ZM635.08 135.772C638.019 135.772 640.184 135.134 641.576 133.858C642.968 132.582 643.664 130.765 643.664 128.406C643.664 123.418 640.803 120.924 635.08 120.924H627.308V135.772H635.08ZM660.896 120.866V134.38H675.628V138.73H660.896V152.65H677.368V157H655.618V116.516H677.368V120.866H660.896ZM706.641 157L697.013 140.47H690.633V157H685.355V116.574H698.405C701.459 116.574 704.031 117.096 706.119 118.14C708.245 119.184 709.831 120.595 710.875 122.374C711.919 124.153 712.441 126.183 712.441 128.464C712.441 131.248 711.629 133.703 710.005 135.83C708.419 137.957 706.022 139.368 702.813 140.064L712.963 157H706.641ZM690.633 136.236H698.405C701.266 136.236 703.412 135.54 704.843 134.148C706.273 132.717 706.989 130.823 706.989 128.464C706.989 126.067 706.273 124.211 704.843 122.896C703.451 121.581 701.305 120.924 698.405 120.924H690.633V136.236Z" fill="#9747FF"/>
</svg>
